<?xml version="1.0" encoding="UTF-8"?>
<svg viewBox="0 0 355 200" version="1.1" xmlns="http://www.w3.org/2000/svg" xmlns:xlink="http://www.w3.org/1999/xlink">
    <g id="Group" fill="#01D277" fill-rule="nonzero">
        <path d="M252.414214,199.414214 L348.414214,103.414214 C349.195262,102.633165 349.195262,101.366835 348.414214,100.585786 C347.633165,99.8047379 346.366835,99.8047379 345.585786,100.585786 L249.585786,196.585786 C248.804738,197.366835 248.804738,198.633165 249.585786,199.414214 C250.366835,200.195262 251.633165,200.195262 252.414214,199.414214 Z" id="Path"></path>
        <path d="M264.414214,91.4142136 L332.414214,23.4142136 C333.195262,22.633165 333.195262,21.366835 332.414214,20.5857864 C331.633165,19.8047379 330.366835,19.8047379 329.585786,20.5857864 L261.585786,88.5857864 C260.804738,89.366835 260.804738,90.633165 261.585786,91.4142136 C262.366835,92.1952621 263.633165,92.1952621 264.414214,91.4142136 Z" id="Path"></path>
        <path d="M274.414214,56.4142136 L317.414214,13.4142136 C318.195262,12.633165 318.195262,11.366835 317.414214,10.5857864 C316.633165,9.80473785 315.366835,9.80473785 314.585786,10.5857864 L271.585786,53.5857864 C270.804738,54.366835 270.804738,55.633165 271.585786,56.4142136 C272.366835,57.1952621 273.633165,57.1952621 274.414214,56.4142136 Z" id="Path"></path>
        <path d="M3.41421356,193.414214 L99.4142136,97.4142136 C100.195262,96.633165 100.195262,95.366835 99.4142136,94.5857864 C98.633165,93.8047379 97.366835,93.8047379 96.5857864,94.5857864 L0.585786438,190.585786 C-0.195262146,191.366835 -0.195262146,192.633165 0.585786438,193.414214 C1.36683502,194.195262 2.63316498,194.195262 3.41421356,193.414214 Z" id="Path"></path>
        <path d="M19.4142136,73.4142136 L87.4142136,5.41421356 C88.1952621,4.63316498 88.1952621,3.36683502 87.4142136,2.58578644 C86.633165,1.80473785 85.366835,1.80473785 84.5857864,2.58578644 L16.5857864,70.5857864 C15.8047379,71.366835 15.8047379,72.633165 16.5857864,73.4142136 C17.366835,74.1952621 18.633165,74.1952621 19.4142136,73.4142136 Z" id="Path"></path>
        <path d="M19.4142136,46.4142136 L62.4142136,3.41421356 C63.1952621,2.63316498 63.1952621,1.36683502 62.4142136,0.585786438 C61.633165,-0.195262146 60.366835,-0.195262146 59.5857864,0.585786438 L16.5857864,43.5857864 C15.8047379,44.366835 15.8047379,45.633165 16.5857864,46.4142136 C17.366835,47.1952621 18.633165,47.1952621 19.4142136,46.4142136 Z" id="Path"></path>
    </g>
</svg>