<?xml version="1.0" encoding="UTF-8"?>
<svg viewBox="0 0 50 43" version="1.1" xmlns="http://www.w3.org/2000/svg" xmlns:xlink="http://www.w3.org/1999/xlink">
    <g id="Page-1" stroke="none" stroke-width="1" fill="none" fill-rule="evenodd">
        <g id="Group-2" transform="translate(-53.000000, -96.000000)" fill="#02D277" fill-rule="nonzero">
            <g id="movie" transform="translate(53.000000, 96.000000)">
                <path d="M46.5016126,21.8854883 L38.8902375,26.9631836 L38.8902375,37.5410156 L46.4998764,42.612832 C47.975622,43.5937695 49.9999989,42.5935156 49.9999989,40.8802344 L49.9999989,23.6180859 C50.0017339,21.9115234 47.9816986,20.9037109 46.5016126,21.8854883 L46.5016126,21.8854883 Z M1.38893705,24.1875 C0.621848301,24.1875 0,24.7891174 0,25.53125 L0,28.21875 C0,28.9608826 0.621848301,29.5625 1.38893705,29.5625 L5.55574822,29.5625 L5.55574822,38.9855469 C5.55622745,41.202476 7.41371855,42.9995364 9.70519766,43 L31.962914,43 C34.2543931,42.9995364 36.1118842,41.202476 36.1123634,38.9855469 L36.1123634,28.2019531 C36.1118842,25.985024 34.2543931,24.1879636 31.962914,24.1875 L1.38893705,24.1875 Z M30.5566152,0 C26.3403231,0 22.7169336,2.29865234 20.8340558,5.64626953 C18.951178,2.29865234 15.3277885,0 11.1114964,0 C4.9747864,0 0,4.81293894 0,10.75 C0,16.6870611 4.9747864,21.5 11.1114964,21.5 L30.5566152,21.5 C36.6933252,21.5 41.6681116,16.6870611 41.6681116,10.75 C41.6681116,4.81293894 36.6933252,0 30.5566152,0 Z M11.1114964,16.125 C8.04314142,16.125 5.55574822,13.7185305 5.55574822,10.75 C5.55574822,7.78146947 8.04314142,5.375 11.1114964,5.375 C14.1798514,5.375 16.6672446,7.78146947 16.6672446,10.75 C16.6638956,13.7171874 14.1784632,16.12176 11.1114964,16.125 L11.1114964,16.125 Z M30.5566152,16.125 C27.4882602,16.125 25.000867,13.7185305 25.000867,10.75 C25.000867,7.78146947 27.4882602,5.375 30.5566152,5.375 C33.6249702,5.375 36.1123634,7.78146947 36.1123634,10.75 C36.1090144,13.7171874 33.6235819,16.12176 30.5566152,16.125 L30.5566152,16.125 Z" id="Shape"></path>
            </g>
        </g>
    </g>
</svg>