<?xml version="1.0" encoding="UTF-8"?>
<svg viewBox="0 0 20 20" version="1.1" xmlns="http://www.w3.org/2000/svg" xmlns:xlink="http://www.w3.org/1999/xlink">
    <g>
        <g fill="#02D277">
            <path d="M8.5,17 C3.80557963,17 0,13.1944204 0,8.5 C0,3.80557963 3.80557963,0 8.5,0 C13.1944204,0 17,3.80557963 17,8.5 C17,13.1944204 13.1944204,17 8.5,17 Z M8.5,15 C12.0898509,15 15,12.0898509 15,8.5 C15,4.9101491 12.0898509,2 8.5,2 C4.9101491,2 2,4.9101491 2,8.5 C2,12.0898509 4.9101491,15 8.5,15 Z" id="Shape"></path>
            <path d="M19.7071068,18.2928932 C20.0976311,18.6834175 20.0976311,19.3165825 19.7071068,19.7071068 C19.3165825,20.0976311 18.6834175,20.0976311 18.2928932,19.7071068 L13.0928932,14.5071068 C12.7023689,14.1165825 12.7023689,13.4834175 13.0928932,13.0928932 C13.4834175,12.7023689 14.1165825,12.7023689 14.5071068,13.0928932 L19.7071068,18.2928932 Z" id="Path"></path>
        </g>
    </g>
</svg>